<svg width="586" height="316" viewBox="0 0 586 316" fill="none" xmlns="http://www.w3.org/2000/svg">
<path d="M256.359 45.8357L275.151 121.207C275.151 121.207 305.081 112.55 344.554 121.061C375.411 95.0146 405.901 88.6069 405.901 88.6069L387.109 13.236C387.109 13.236 351.454 22.126 325.762 45.69C292.015 36.9458 256.359 45.8357 256.359 45.8357Z" fill="white"/>
<path d="M326.158 46.3093L345.93 118.236" stroke="#12296C" stroke-width="1.51012"/>
<path d="M434.505 52.3018L407.938 125.295C407.938 125.295 437.591 134.855 465.557 163.984C505.703 159.646 534.564 171.384 534.564 171.384L561.131 98.3899C561.131 98.3899 526.6 85.8217 492.124 90.9905C469.036 64.87 434.505 52.3018 434.505 52.3018Z" fill="white"/>
<path d="M492.106 91.7249L468.277 162.411" stroke="#12296C" stroke-width="1.51012"/>
<path d="M299.808 183.639L327.646 256.158C327.646 256.158 356.297 243.918 396.513 247.555C423.966 217.943 453.448 207.867 453.448 207.867L425.611 135.348C425.611 135.348 391.304 148.517 368.676 175.037C334.115 170.47 299.808 183.639 299.808 183.639Z" fill="white"/>
<path d="M369.517 176.514L396.699 245.98" stroke="#12296C" stroke-width="1.51012"/>
<rect x="169.134" y="62.2998" width="24.1619" height="42.2834" fill="#12296C"/>
<rect x="75.5059" y="112.24" width="120.81" height="65.8639" transform="rotate(-26 75.5059 112.24)" fill="#12296C"/>
<rect x="60.5848" y="148.534" width="40.6735" height="105.869" transform="rotate(-16 60.5848 148.534)" fill="#12296C"/>
<rect x="190.275" y="59.2793" width="3.02024" height="3.02024" fill="#12296C"/>
<path d="M193.295 65.0455V77.401V62.2998" stroke="#12296C" stroke-width="1.35911" stroke-linecap="square"/>
<path d="M57.8214 118.568C54.7505 119.872 51.2044 118.439 49.9009 115.368L44.6438 102.983C43.3403 99.9121 44.773 96.3659 47.8439 95.0624L143.987 54.2519C147.058 52.9484 150.604 54.3811 151.908 57.452L157.165 69.837C158.469 72.9079 157.036 76.454 153.965 77.7575L57.8214 118.568Z" fill="white"/>
<rect x="144.972" y="62.77" width="7.42634" height="16.2855" transform="rotate(-48 144.972 62.77)" fill="white"/>
<rect x="205.376" y="95.3123" width="7.84513" height="15.1187" transform="rotate(-48 205.376 95.3123)" fill="white"/>
<path d="M123.352 159.173C120.281 160.477 116.735 159.044 115.431 155.973L105.048 131.513C103.745 128.442 105.177 124.896 108.248 123.592L202.834 83.4431C205.905 82.1396 209.451 83.5723 210.754 86.6432L221.137 111.104C222.441 114.175 221.008 117.721 217.937 119.024L123.352 159.173Z" fill="white"/>
<path d="M251.813 88.1415C251.018 87.5037 250.066 87.0938 249.057 86.9558C248.047 86.8178 247.02 86.9569 246.084 87.3582L154.91 126.838C150.946 128.566 145.981 129.387 140.885 129.387C133.778 129.415 126.425 127.763 121.3 125.517C119.739 124.859 118.252 124.037 116.864 123.063C117.242 122.874 117.714 122.667 118.233 122.459L201.157 86.5559L213.522 91.8413V76.3909C213.54 75.2891 213.31 74.1973 212.847 73.1971C212.385 72.1969 211.702 71.3141 210.851 70.6147C210.06 69.9776 209.11 69.568 208.104 69.4299C207.098 69.2919 206.074 69.4307 205.14 69.8313L113.967 109.312C111.154 110.444 108.738 111.841 106.699 113.87C104.339 116.199 102.998 119.369 102.971 122.686C102.971 122.78 103 122.94 103 122.94V261.966L102.981 262.155C102.981 262.192 103.009 262.211 103.009 262.249V262.4H103.028C103.217 267.261 105.671 270.356 108.011 272.546C115.373 279.04 127.737 282.673 140.894 282.862C147.123 282.862 153.447 281.918 159.299 279.408L250.501 239.918C252.907 238.88 254.484 236.303 254.484 233.387V93.9177C254.498 92.8166 254.266 91.7261 253.804 90.7265C253.341 89.727 252.661 88.8437 251.813 88.1415V88.1415ZM193.984 61.7144C193.824 59.638 192.965 57.656 191.436 56.4668C190.642 55.8289 189.689 55.419 188.68 55.2811C187.671 55.1431 186.643 55.2821 185.707 55.6834L94.5335 95.1447C90.5695 96.8625 85.5955 97.693 80.5083 97.693C73.4013 97.7119 66.0489 96.0602 60.9239 93.8045C59.3606 93.1577 57.873 92.3411 56.488 91.3694C56.8655 91.1806 57.3374 90.973 57.8565 90.7654L140.79 54.8623L153.155 60.1477V44.7161C153.171 43.6137 152.939 42.5216 152.475 41.5215C152.011 40.5213 151.327 39.6389 150.474 38.9399C149.681 38.3029 148.73 37.8935 147.723 37.7555C146.715 37.6175 145.689 37.7561 144.754 38.1566L53.581 77.6462C50.7684 78.7788 48.3616 80.1662 46.3135 82.2049C43.9562 84.5354 42.619 87.7054 42.5948 91.0202C42.5948 91.1335 42.6232 91.2845 42.6232 91.2845V230.754H42.642C42.8308 235.614 45.2848 238.71 47.6254 240.9C54.9873 247.393 67.3514 251.017 80.5177 251.206C84.0933 251.185 87.6574 250.799 91.1547 250.055V122.931C91.0603 116.324 93.703 109.982 98.3466 105.414C101.564 102.293 105.386 99.8645 109.578 98.2782L193.984 61.7144V61.7144Z" fill="#12296C"/>
<path d="M102.688 261.635V124.214C103.543 118.442 105.102 115.961 108.729 112.133L205.377 69.8501" stroke="white" stroke-width="1.35911" stroke-linecap="square"/>
</svg>
